<svg class="hidden">
	<symbol xmlns="http://www.w3.org/2000/svg" viewBox="0 0 24 24" id="call">
		<path
			d="M20.01 15.38C18.78 15.38 17.59 15.18 16.48 14.82C16.13 14.7 15.74 14.79 15.47 15.06L13.9 17.03C11.07 15.68 8.42 13.13 7.01 10.2L8.96 8.54C9.23 8.26 9.31 7.87 9.2 7.52C8.83 6.41 8.64 5.22 8.64 3.99C8.64 3.45 8.19 3 7.65 3H4.19C3.65 3 3 3.24 3 3.99C3 13.28 10.73 21 20.01 21C20.72 21 21 20.37 21 19.82V16.37C21 15.83 20.55 15.38 20.01 15.38Z"
		></path>
	</symbol>
	<symbol xmlns="http://www.w3.org/2000/svg" viewBox="0 0 24 24" id="chat">
		<path
			d="M20 2H4C2.9 2 2 2.9 2 4V22L6 18H20C21.1 18 22 17.1 22 16V4C22 2.9 21.1 2 20 2ZM20 16H6L4 18V4H20V16Z"
		></path>
	</symbol>
	<symbol xmlns="http://www.w3.org/2000/svg" viewBox="0 0 24 24" id="file">
		<path
			d="M20.41 8.41L15.58 3.58C15.21 3.21 14.7 3 14.17 3H5C3.9 3 3 3.9 3 5V19C3 20.1 3.9 21 5 21H19C20.1 21 21 20.1 21 19V9.83C21 9.3 20.79 8.79 20.41 8.41ZM7 7H14V9H7V7ZM17 17H7V15H17V17ZM17 13H7V11H17V13Z"
		></path>
	</symbol>
	<symbol xmlns="http://www.w3.org/2000/svg" viewBox="0 0 24 24" id="filter">
	<path
		opacity="0.4"
		d="M10.0833 15.958H3.50777C2.67555 15.958 2 16.6217 2 17.4393C2 18.2559 2.67555 18.9207 3.50777 18.9207H10.0833C10.9155 18.9207 11.5911 18.2559 11.5911 17.4393C11.5911 16.6217 10.9155 15.958 10.0833 15.958Z"
	></path>
	<path
		opacity="0.4"
		d="M22.0001 6.37855C22.0001 5.56202 21.3246 4.89832 20.4934 4.89832H13.9179C13.0857 4.89832 12.4102 5.56202 12.4102 6.37855C12.4102 7.19617 13.0857 7.85988 13.9179 7.85988H20.4934C21.3246 7.85988 22.0001 7.19617 22.0001 6.37855Z"
	></path>
	<path
		d="M8.87774 6.37856C8.87774 8.24523 7.33886 9.75821 5.43887 9.75821C3.53999 9.75821 2 8.24523 2 6.37856C2 4.51298 3.53999 3 5.43887 3C7.33886 3 8.87774 4.51298 8.87774 6.37856Z"
	></path>
	<path
		d="M21.9998 17.3992C21.9998 19.2648 20.4609 20.7777 18.5609 20.7777C16.6621 20.7777 15.1221 19.2648 15.1221 17.3992C15.1221 15.5325 16.6621 14.0195 18.5609 14.0195C20.4609 14.0195 21.9998 15.5325 21.9998 17.3992Z"
	></path>
</symbol>
<symbol xmlns="http://www.w3.org/2000/svg" viewBox="0 0 12 13" id="spinner">
	<path
		fill-rule="evenodd"
		clip-rule="evenodd"
		d="M8.49419 3.2483C7.67504 2.70283 6.69966 2.44092 5.71745 2.50272C4.73524 2.56451 3.80037 2.9466 3.05605 3.59044C2.31172 4.23429 1.79899 5.10439 1.59639 6.06746C1.39379 7.03053 1.5125 8.03346 1.93432 8.92263C2.11186 9.29687 1.95241 9.74417 1.57817 9.92171C1.20394 10.0992 0.756636 9.93979 0.579096 9.56556C0.0166606 8.38001 -0.141613 7.04276 0.12852 5.75866C0.398653 4.47457 1.0823 3.31444 2.07473 2.45598C3.06716 1.59752 4.31365 1.08807 5.62326 1.00568C6.93287 0.923286 8.23339 1.27249 9.32559 1.99979C10.4178 2.7271 11.2414 3.7924 11.6704 5.03251C12.0993 6.27262 12.1099 7.61916 11.7005 8.86586C11.2911 10.1126 10.4843 11.1907 9.40362 11.935C8.32298 12.6794 7.02811 13.049 5.71737 12.9872C5.30361 12.9677 4.98402 12.6164 5.00353 12.2027C5.02304 11.7889 5.37427 11.4693 5.78803 11.4888C6.77108 11.5352 7.74224 11.258 8.55272 10.6997C9.3632 10.1415 9.96831 9.33288 10.2754 8.39785C10.5824 7.46283 10.5745 6.45293 10.2528 5.52284C9.93108 4.59276 9.31334 3.79378 8.49419 3.2483Z"
	></path>
</symbol>
<symbol xmlns="http://www.w3.org/2000/svg" viewBox="0 0 29 28" id="basket">
	<path
		d="M22.1667 10V20.5C22.1667 22.9853 20.152 25 17.6667 25H10.6667C8.18147 25 6.16675 22.9853 6.16675 20.5V10H5.45694C4.74439 10 4.16675 9.42236 4.16675 8.70981V7.25C4.16675 5.73122 5.39796 4.5 6.91675 4.5H8.56791C9.09161 3.59342 10.0698 3 11.1667 3H17.1667C18.2637 3 19.2419 3.59342 19.7656 4.5H21.4167C22.9355 4.5 24.1667 5.73122 24.1667 7.25V8.70981C24.1667 9.42236 23.5891 10 22.8766 10H22.1667ZM21.1667 8H22.1667V7.25C22.1667 6.83579 21.831 6.5 21.4167 6.5H19.1037C18.6475 6.5 18.249 6.19114 18.1353 5.74926C18.0228 5.3121 17.6256 5 17.1667 5H11.1667C10.7079 5 10.3107 5.3121 10.1982 5.74926C10.0845 6.19114 9.68604 6.5 9.22976 6.5H6.91675C6.50253 6.5 6.16675 6.83579 6.16675 7.25V8H7.16675H21.1667ZM8.16675 10V20.5C8.16675 21.8807 9.28604 23 10.6667 23H17.6667C19.0475 23 20.1667 21.8807 20.1667 20.5V10H8.16675Z"
	></path>
</symbol>
</svg>
